<?xml version="1.0" encoding="utf-8"?>
<!-- Generator: Adobe Illustrator 24.2.3, SVG Export Plug-In . SVG Version: 6.00 Build 0)  -->
<svg version="1.1" id="Слой_2_1_" xmlns="http://www.w3.org/2000/svg" xmlns:xlink="http://www.w3.org/1999/xlink" x="0px" width="22" height="22"
	 y="0px" viewBox="0 0 500 498" style="enable-background:new 0 0 500 498;" xml:space="preserve">
<style type="text/css">
	.st0{fill:#CE2D2D;}
	.st1{fill:#B12222;}
	.st2{fill:#9A1919;}
	.st3{fill:#851111;}
	.st4{fill:url(#SVGID_1_);}
	.st5{fill:#EDC025;}
</style>
<g>
	<path class="st0" d="M250,498L250,498C111.9,498,0,386.1,0,248V48c0-0.6,0-1.1,0-1.7C1.1,14.5,32.7-7.3,63.2,2L226,52l0,0h48l0,0
		L436,2.3c30.9-9.5,62.9,12.6,64,44.9c0,0.6,0,1.2,0,1.8v200C500,386.1,388.1,498,250,498z"/>
</g>
<g>
	<path class="st1" d="M250,468L250,468c-121.5,0-220-98.5-220-220V72c0-14.2,6.8-25.1,17.2-32.7C58.6,31,73,27.8,86.9,29.9L229,52
		h42l143.6-22.3c13.4-2,27.3,1.1,38.2,9.2c10.4,7.8,17.2,19.3,17.2,33.9v176C470,369.5,371.5,468,250,468z"/>
</g>
<g>
	<path class="st2" d="M250,410L250,410c-91.5,0-165.7-74.2-165.7-165.7V111.7C84.3,65,223,51,223,51h54c0,0,138.7,14,138.7,61.4V245
		C415.7,335.8,341.5,410,250,410z"/>
</g>
<g>
	<path class="st3" d="M250,338L250,338c-54.3,0-98.3-44-98.3-98.3v-78.6C151.7,110,223,51,223,51h54c0,0,71.3,59,71.3,110.5v78.6
		C348.3,294,304.3,338,250,338z"/>
</g>
<g>
	
		<linearGradient id="SVGID_1_" gradientUnits="userSpaceOnUse" x1="250" y1="251" x2="250" y2="450" gradientTransform="matrix(1 0 0 -1 0 500)">
		<stop  offset="0" style="stop-color:#EDC025"/>
		<stop  offset="0.1404" style="stop-color:#EDC025"/>
		<stop  offset="0.9973" style="stop-color:#FFFFFF"/>
	</linearGradient>
	<polygon class="st4" points="230,249 222,50 278,50 270,249 	"/>
</g>
<g>
	<circle class="st5" cx="250" cy="248" r="20"/>
</g>
</svg>
