<?xml version="1.0" encoding="utf-8"?>
<!-- Generator: Adobe Illustrator 24.2.3, SVG Export Plug-In . SVG Version: 6.00 Build 0)  -->
<svg version="1.1" id="Слой_1" xmlns="http://www.w3.org/2000/svg" xmlns:xlink="http://www.w3.org/1999/xlink" x="0px" y="0px" width="15" height="15px"
	 viewBox="0 0 222.6 226.4" style="enable-background:new 0 0 222.6 226.4;" xml:space="preserve">
<path d="M48.3,64.7H11.7C5.2,64.7,0,59.5,0,53.1l0-41.4C0,5.2,5.2,0,11.7,0l36.7,0C54.8,0,60,5.2,60,11.7v41.4
	C60,59.5,54.8,64.7,48.3,64.7z"/>
<path d="M211,64.7h-36.7c-6.4,0-11.7-5.2-11.7-11.7V11.7c0-6.4,5.2-11.7,11.7-11.7L211,0c6.4,0,11.7,5.2,11.7,11.7v41.4
	C222.6,59.5,217.4,64.7,211,64.7z"/>
<path d="M211,226.4h-36.7c-6.4,0-11.7-5.2-11.7-11.7v-41.4c0-6.4,5.2-11.7,11.7-11.7H211c6.4,0,11.7,5.2,11.7,11.7v41.4
	C222.6,221.2,217.4,226.4,211,226.4z"/>
<path d="M48.3,226.4H11.7c-6.4,0-11.7-5.2-11.7-11.7l0-41.4c0-6.4,5.2-11.7,11.7-11.7h36.7c6.4,0,11.7,5.2,11.7,11.7
	v41.4C60,221.2,54.8,226.4,48.3,226.4z"/>
<path d="M48.3,145.6H11.7c-6.4,0-11.7-5.2-11.7-11.7l0-41.4c0-6.4,5.2-11.7,11.7-11.7h36.7c6.4,0,11.7,5.2,11.7,11.7
	v41.4C60,140.3,54.8,145.6,48.3,145.6z"/>
<path d="M211,145.6h-36.7c-6.4,0-11.7-5.2-11.7-11.7V92.5c0-6.4,5.2-11.7,11.7-11.7H211c6.4,0,11.7,5.2,11.7,11.7v41.4
	C222.6,140.3,217.4,145.6,211,145.6z"/>
<path d="M129.7,145.6H93c-6.4,0-11.7-5.2-11.7-11.7V92.5c0-6.4,5.2-11.7,11.7-11.7h36.7c6.4,0,11.7,5.2,11.7,11.7v41.4
	C141.3,140.3,136.1,145.6,129.7,145.6z"/>
<path d="M129.7,226.4H93c-6.4,0-11.7-5.2-11.7-11.7v-41.4c0-6.4,5.2-11.7,11.7-11.7h36.7c6.4,0,11.7,5.2,11.7,11.7v41.4
	C141.3,221.2,136.1,226.4,129.7,226.4z"/>
<path d="M129.7,64.7H93c-6.4,0-11.7-5.2-11.7-11.7V11.7C81.3,5.2,86.5,0,93,0l36.7,0c6.4,0,11.7,5.2,11.7,11.7v41.4
	C141.3,59.5,136.1,64.7,129.7,64.7z"/>
</svg>
