<?xml version="1.0" encoding="utf-8"?>
<!-- Generator: Adobe Illustrator 24.2.3, SVG Export Plug-In . SVG Version: 6.00 Build 0)  -->
<svg version="1.1" id="Слой_1" xmlns="http://www.w3.org/2000/svg" xmlns:xlink="http://www.w3.org/1999/xlink" x="0px" y="0px" width="15" height="15px"
	 viewBox="0 0 222.6 226.4" style="enable-background:new 0 0 222.6 226.4;" xml:space="preserve">
<path d="M219.9,35.8L113,65.7c-1,0.3-2.1,0.3-3,0L2.7,35.8c-3.6-1-3.6-4.7,0-5.7L110,0.2c1-0.3,2.1-0.3,3,0l106.9,29.9
	C223.6,31.1,223.6,34.8,219.9,35.8z"/>
<path d="M219.9,116.1L113,146c-1,0.3-2.1,0.3-3,0L2.7,116.1c-3.6-1-3.6-4.7,0-5.7L110,80.4c1-0.3,2.1-0.3,3,0
	l106.9,29.9C223.6,111.3,223.6,115.1,219.9,116.1z"/>
<path d="M219.9,196.3L113,226.2c-1,0.3-2.1,0.3-3,0L2.7,196.3c-3.6-1-3.6-4.7,0-5.7L110,160.6c1-0.3,2.1-0.3,3,0
	l106.9,29.9C223.6,191.6,223.6,195.3,219.9,196.3z"/>
</svg>
