<?xml version="1.0" encoding="utf-8"?>
<!-- Generator: Adobe Illustrator 24.2.3, SVG Export Plug-In . SVG Version: 6.00 Build 0)  -->
<svg version="1.1" id="Слой_1" xmlns="http://www.w3.org/2000/svg" xmlns:xlink="http://www.w3.org/1999/xlink" x="0px" y="0px" width="15" height="15px"
	 viewBox="0 0 222.6 226.4" style="enable-background:new 0 0 222.6 226.4;" xml:space="preserve">
<path d="M202.7,226.4h-49c-11,0-19.9-8.9-19.9-19.9V19.9c0-11,8.9-19.9,19.9-19.9h49c11,0,19.9,8.9,19.9,19.9v186.5
	C222.6,217.5,213.7,226.4,202.7,226.4z"/>
<path d="M92.8,133.5H51.7c-6.4,0-11.5-5.2-11.5-11.5v-15.6c0-6.4,5.2-11.5,11.5-11.5h41.1c6.4,0,11.5,5.2,11.5,11.5V122
	C104.3,128.4,99.2,133.5,92.8,133.5z"/>
<path d="M3.5,108.5l35.7-29.7c4.8-4,12.1-0.6,12.1,5.6v59.4c0,6.2-7.3,9.6-12.1,5.6L3.5,119.8
	C-0.1,116.9-0.1,111.5,3.5,108.5z"/>
</svg>
