<?xml version="1.0" encoding="utf-8"?>
<!-- Generator: Adobe Illustrator 24.2.3, SVG Export Plug-In . SVG Version: 6.00 Build 0)  -->
<svg version="1.1" id="Слой_1" xmlns="http://www.w3.org/2000/svg" xmlns:xlink="http://www.w3.org/1999/xlink" x="0px" y="0px" width="15" height="15px"
	 viewBox="0 0 222.6 226.4" style="enable-background:new 0 0 222.6 226.4;" xml:space="preserve">
<path d="M23.3,226.4L23.3,226.4C10.4,226.4,0,216,0,203.1V23.3C0,10.4,10.4,0,23.3,0h0c12.9,0,23.3,10.4,23.3,23.3
	v179.7C46.6,216,36.2,226.4,23.3,226.4z"/>
<path d="M111.3,226.4L111.3,226.4C98.4,226.4,88,216,88,203.1v-80.9c0-12.9,10.4-23.3,23.3-23.3h0
	c12.9,0,23.3,10.4,23.3,23.3v80.9C134.6,216,124.2,226.4,111.3,226.4z"/>
<path d="M199.3,226.4L199.3,226.4c-12.9,0-23.3-10.4-23.3-23.3V65.3c0-12.9,10.4-23.3,23.3-23.3h0
	c12.9,0,23.3,10.4,23.3,23.3v137.8C222.6,216,212.2,226.4,199.3,226.4z"/>
</svg>
