<?xml version="1.0" encoding="utf-8"?>
<!-- Generator: Adobe Illustrator 24.2.3, SVG Export Plug-In . SVG Version: 6.00 Build 0)  -->
<svg version="1.1" id="Слой_1" xmlns="http://www.w3.org/2000/svg" xmlns:xlink="http://www.w3.org/1999/xlink" x="0px" y="0px" width="15" height="15px"
	 viewBox="0 0 222.6 226.4" style="enable-background:new 0 0 222.6 226.4;" xml:space="preserve">
	<path class="st0" d="M149,101.8H94.2c-6.6,0-12-5.4-12-12V35c0-6.6,5.4-12,12-12H149c6.6,0,12,5.4,12,12v54.8
		C161,96.4,155.6,101.8,149,101.8z"/>
	<path class="st0" d="M48,113.2H12c-6.6,0-12-5.4-12-12l0-36.1c0-6.6,5.4-12,12-12H48c6.6,0,12,5.4,12,12v36.1
		C60,107.8,54.6,113.2,48,113.2z"/>
	<path class="st0" d="M80,226.4H16.6C7.4,226.4,0,219,0,209.8l0-63.4c0-9.2,7.4-16.6,16.6-16.6H80c9.2,0,16.6,7.4,16.6,16.6v63.4
		C96.7,219,89.2,226.4,80,226.4z"/>
	<path class="st0" d="M211.9,226.4H125c-5.8,0-10.5-4.7-10.5-10.5V129c0-5.8,4.7-10.5,10.5-10.5h86.8c5.8,0,10.5,4.7,10.5,10.5v86.8
		C222.4,221.7,217.7,226.4,211.9,226.4z"/>
</svg>
